<?xml version="1.0" encoding="UTF-8"?>
<svg id="Isolation_Mode" data-name="Isolation Mode" xmlns="http://www.w3.org/2000/svg" viewBox="0 0 256.39 230.4">
  <defs>
    <style>
      .cls-1 {
        fill: #fff;
      }
    </style>
  </defs>
  <path class="cls-1" d="m135.93,89.51c.42-.12.8-.3,1.18-1.2.7-1.64,1.61-3.14,2.72-4.49-.4-.16-.78-.34-1.13-.53-.56-.08-1.12-.18-1.65-.32-.25-.07-.53-.11-.81-.16-1.48-.26-3.88-.68-5.86-2.44.06.24.11.48.16.72.65,3.33,1.28,6.66,1.87,10,1.1-.68,2.28-1.21,3.53-1.58Z"/>
  <path class="cls-1" d="m160.55,105.98c1.59.54,2.93,1.62,3.89,3.08,2.37-.92,4.98-.83,7.82.27.27.11.55.23.82.35.23,0,.46-.02.7-.02h4.23l.24.59,1.43-.35.76,1.44s.03,0,.04,0c.64.1,1.76-.2,2.95-.5,1.59-.41,3.56-.92,5.8-.92h.09c-.5-.24-1.03-.53-1.57-.87-.86-.55-2.05-1.31-3.07-2.55-.11-.04-.22-.08-.33-.12-.26-.1-.57-.21-.9-.34-1.97.06-3.6-.36-4.87-1.16l-2.64.7-1.65-3.1c-.26-.05-.52-.1-.78-.16-2.63-.61-4.23-.96-5.68-.64-4.87,1.07-9.38.04-12.35-.84l-.85-.25c-1.18-.35-2.29-.69-3.27-.85-2.5-.41-3.13.4-3.47.85-4.23,5.44-9.66,8.71-14.41,11.34-2.49,1.38-4.32,3.01-5.54,4.96.25-.02.5-.03.74-.03.69,0,1.32.06,1.87.15l4.17-5.03,1.61,1.53c.43-1.56,1.32-2.79,2.65-3.68.15-.12.32-.32.5-.5,1.26-1.29,3.87-3.97,8.3-3.83.83.03,1.65,0,2.47-.02.71-.02,1.39-.01,2.11-.03.92,0,2.24-.03,3.68.47,1.47-.45,3.03-.43,4.49.07Z"/>
  <path class="cls-1" d="m100.49,125.99c-.25-.08-.5-.17-.75-.23h-.3c-.11,0-.21,0-.32,0-3.69,1.94-7.24,1.56-9.9.81.32.18.64.36.96.54,1.3.72,2.59,1.44,3.84,2.22,1.81,1.13,3.72,1.49,6.59,1.25.35-.03.69-.05,1.03-.06-.24-1.27-.31-2.68-.11-4.23-.35-.08-.69-.17-1.05-.28Z"/>
  <path class="cls-1" d="m128.19,0C57.39,0,0,52.35,0,116.94c0,54.81,41.35,100.8,97.14,113.46-2.36-1.94-4.1-4.42-5.07-7.38-.41-1.24-.83-2.48-1.25-3.71-.59-1.73-1.18-3.46-1.73-5.2-1.21-3.79-1.39-7.55-.56-11.17.29-1.25.7-2.41,1.24-3.48-.15,0-.3,0-.44,0-1.55,0-2.97-.24-4.04-.44-4.35-.84-7.34-4.2-7.61-8.56l-.08-1.14c-.16-2.45-.33-4.98-.25-7.62.18-6.13,3.76-9.83,9.83-10.15,4.13-.22,8.26-.18,12.25-.14h.65c1.95.02,3.9.09,5.85.15,1.99.07,3.98.13,5.97.14,2.3.01,4.58-.01,6.88-.04,2.62-.03,5.24-.06,7.86-.04.45-1.16.89-2.36,1.27-3.55.44-1.4.21-3.07-.77-5.59-1.11-2.85-3.04-5.66-6.07-8.85-1.5-1.58-3.35-3.05-5.3-4.6-.5-.4-.99-.79-1.48-1.19-1.31-.14-2.61-.28-3.93-.41l-3.91-.41c-.92-.1-2.06-.22-3.29-.54-2.21-.59-4.66-.99-7.94-1.3-3.62-.35-7-1.46-9.24-2.27-4.27-1.54-6.95-4.69-8.92-6.99-.48-.56-1.25-1.47-1.79-2.05-.13,0-.26,0-.41,0-.75,0-1.65,0-2.77-.05-4.43-.19-7.99.33-11.24,1.64-2.12.85-4.18,1.38-6.17,1.9-.83.22-1.67.43-2.49.67-4.35,1.27-8.36.27-11.18-2.74-2.37-.04-4.41-.92-5.34-1.36-.23-.11-.45-.22-.68-.3-.92-.22-1.77-.53-2.56-.87-.8.15-1.7.18-2.68.04-1.47.99-2.94,1.48-3.93,1.81-.32.11-.66.19-.96.35-3.45,1.78-7.41,1.48-10.6-.77-.79-.56-3.11-2.2-3.87-5.2-2.07-1.51-2.8-3.39-3.06-4.5-.37-1.58-.21-3.19.45-4.68-.79-2.88-.03-4.9.82-6.18.99-1.49,2.97-3.25,6.79-3.25.15,0,.29,0,.47,0,.22,0,.47,0,.76.03.42-.4.84-.77,1.26-1.11.76-2.13,2.15-3.31,3.01-3.87,1.71-1.11,3.81-1.46,5.94-.98h.2c1.05.05,2.88.12,4.68,1.15l1.04-1.95,2.67,1.03c.21-.18.45-.36.7-.53,1.31-2.73,3.64-4.36,6.57-4.69.51-.86,1.28-1.85,2.39-2.65.91-3.06,2.76-5.21,5.31-6.25,2.24-.92,4.7-.85,7.06.17.26-.25.49-.49.72-.72,5.5-5.61,10.58-2.24,12.01-1.07.02-.01.32.05.66.12-.1-.22-.2-.44-.29-.66-.8-1.97-.79-3.8-.79-5.13,0-.31,0-.62-.01-.92l-.11-1.66c-2.78.91-5.56.67-7.94-.7-2.8-1.61-4.59-4.52-5.03-8.2l-.79-6.65,5.4-.29.23-3.48,3.23-1.61c3.34-1.66,6.25-.78,7.71-.22.02,0,.04,0,.06-.01.43-.68.99-1.36,1.7-1.98.79-1.6,2.33-3.21,5.33-4.03,1.78-.49,3.47-.95,5.18-1.34,1.41-.33,2.91-1.26,4.64-2.34.21-.13.41-.25.61-.38.17-.31.35-.61.54-.9.07-.11.13-.24.21-.37.5-.9,1.33-2.4,2.93-3.59,3.26-2.42,6.57-3.89,10.09-4.48,1-.17,2-.39,2.99-.6,1.48-.32,2.97-.64,4.47-.85,2.07-.29,4.07-.19,5.92-.04.66.06,1.31.14,1.96.23.96.13,1.77.23,2.34.16,3.6-.47,7.17.65,9.95,3.1,1.74-1.6,4.2-2.74,7.52-1.96.96-1.49,2.43-3.09,4.9-3.66,2.47-.57,4.49.23,6.02,1.16,1.84-1.04,3.67-1.39,4.95-1.64.26-.05.52-.1.77-.15.3-.07.59-.12.88-.18,2.55-1.7,6.18-2.66,9.94,1.08l3.23-1.49,1.63,2.05,4.71-2.28,2.88,5.17c.12.19.65.7,1.04,1.07,1.24,1.19,3.11,2.97,4.14,5.77.08.06.21.16.41.28.39.23.8.45,1.21.67,3.91,2.02,5.97,3.92,6.71,6.74.21,0,.42.02.63.04,1.18.1,2.34-.1,3.68-.63,1.37-.55,2.64-.57,3.62-.45,2.58-.88,5.36-.88,7.95.03,5.2-1.34,8.43.21,10.41,2.29.38.08.72.14,1.06.21.84.16,1.67.32,2.5.53,1.42.36,2.81.99,4.01,1.81.82.56,1.59,1.19,2.46,1.92l2.3,1.88.75,2.04c.1.27.23.65.38,1.04.6,1.02,1.67,2.93,1.3,5.43-.28,1.91-1.19,5.25-4.11,7-.06.1-.12.21-.19.31-.34.54-.68,1.09-1.09,1.63l-3.11,4.13-2.67-1.3-1.57,1.43-2.39-1.21-2.37,1.73-3.37-2.29c-1.49.32-3.02.25-4.45-.17l.54,2c2.01,2.18,2.7,5.26,1.73,8.63-.04.16-.06.35-.09.54-.12.72-.3,1.85-.79,3.08.75,2.14.65,4.33-.29,6.21-.96,1.91-2.73,3.31-4.86,3.82-.28.08-.55.22-.83.34-.82.35-1.97.85-3.36,1.11-1.1,1.28-2.44,2.17-4,2.65-.81.25-1.83.43-3.04.37l1.88.77,1.36,3.7c.05.12.1.25.14.38,1.66-.18,3.03.18,4.13.74,1.83-.1,4.11,0,6.25,1.22.13.07.39.24,1.91-.05l.42-.09c.71-.16,1.79-.42,3.05-.38,3.64.05,5.6,1.73,6.61,3.12.41.56.81,1.29,1.07,2.19,1.41.86,2.2,1.97,2.61,2.72.88,1.6,1.1,3.47.66,5.28.36.46.92,1,1.54,1.61,3.31,3.18,4.06,7.62,1.96,11.59-1.14,2.16-2.29,4.32-3.81,6.43-1.39,1.93-3.76,3.44-6.33,4.03-6.14,1.41-12.44.66-19.23-2.3-2.57-1.12-4.4-3.07-5.32-5.56l-.6-.28-.75,1.37c-1.24,2.6-3.65,3.59-5.51,3.65-2.21.06-5.38.17-8.49-1.41-.31.08-.61.14-.9.19-.19,1.04-.57,2.05-1.13,2.99-1.58,2.66-4.38,4.38-7.69,4.72-2.5.26-4.96-.24-7.49-1.51-1.07.8-2.14,1.59-3.23,2.36-.73.52-1.48.95-2.2,1.33.04.18.09.36.13.55.69,2.84,1.34,5.52,2.14,8.15.4,1.32.69,2.65.85,4.06.1,0,.19,0,.28,0,1.81-.04,3.63-.15,5.44-.27,1.81-.11,3.62-.23,5.44-.28,7.37-.2,13.98-.31,20.19-.35h.11c6.13,0,9.39,3.19,9.71,9.5.05.93.11,1.87.18,2.81.11,1.62.22,3.24.26,4.86.03,1.19.12,4.81-2.57,7.62-1.47,1.54-3.41,2.46-5.76,2.74-.57,2.25-1.12,4.72-1.77,7.91-.98,4.77-2.57,9.69-4.88,15.07-.06.13-.13.24-.19.37,43.11-18.84,72.89-59,72.89-105.52C256.39,52.35,198.99,0,128.19,0Z"/>
</svg>