<?xml version="1.0" encoding="utf-8"?>
<!-- Generator: Adobe Illustrator 27.0.1, SVG Export Plug-In . SVG Version: 6.00 Build 0)  -->
<svg version="1.1" id="Camada_1" xmlns="http://www.w3.org/2000/svg" xmlns:xlink="http://www.w3.org/1999/xlink" x="0px" y="0px"
	 viewBox="0 0 975.1 230.4" style="enable-background:new 0 0 975.1 230.4;" xml:space="preserve">
<style type="text/css">
	.st0{fill:#FFFFFF;}
</style>
<g>
	<path class="st0" d="M127.9,149.2h64.8c-1.6,3.4-3.4,6.5-5.6,9.5c-6.5,8.8-15.3,15.6-26.5,20.4c-11.2,4.8-24.1,7.2-39,7.2
		c-15.2,0-28.4-2.8-39.5-8.4s-19.8-13.7-25.8-24.2c-6-10.6-9.1-23.4-9.1-38.3s2.9-27.6,8.6-38c5.8-10.4,13.9-18.3,24.4-23.7
		c10.5-5.4,23-8.1,37.5-8.1c12.2,0,23.1,1.7,32.5,5.1c9.4,3.4,17.2,8.2,23.3,14.5s10.1,13.7,11.9,22.4h46.9
		c-2.4-16.1-8.5-30.4-18.5-42.8c-10-12.5-23-22.3-39.1-29.4c-16.1-7.1-35.1-10.6-57.1-10.6c-16.8,0-32.4,2.5-46.6,7.5
		c-14.3,5-26.7,12.2-37.3,21.7c-10.6,9.5-18.9,21-24.8,34.8S0,98.1,0,115.5c0,17.4,2.9,33,8.8,46.7c5.9,13.7,14,25.3,24.6,34.8
		c10.5,9.5,22.8,16.7,36.8,21.7s29,7.5,45.1,7.5c16.6,0,31.3-2.5,43.9-7.7c12.6-5.1,23.2-12.1,31.8-21.1c2.8-2.9,5.3-6,7.7-9.1
		l2.5,33.7h33.5V114.3H127.9V149.2z"/>
	<path class="st0" d="M490.5,106.7h-48.3l-27.4,37.6L348.7,86c-5.1-4.7-8.8-9.1-11.1-13c-2.3-4-3.4-7.7-3.4-11.1
		c0-4.9,1.3-9.1,4-12.5c2.7-3.4,6.3-6,11.1-7.8c4.8-1.8,10.4-2.7,17-2.7c11.2,0,19.8,2.7,25.9,8.1c6.1,5.4,9.7,12.4,10.8,21.1h45.5
		c-0.7-12.3-4.4-23.2-11.1-32.6c-6.7-9.5-16.1-16.9-28.4-22.4c-12.3-5.5-27.1-8.2-44.5-8.2c-16.5,0-30.6,2.3-42.5,6.8
		c-11.9,4.5-20.9,10.8-27.2,18.9c-6.2,8-9.3,17.5-9.3,28.2c0,8.7,2.5,16.9,7.5,24.7c4.7,7.3,11.1,14.6,19,22
		c-7.2,2-13.6,4.5-19.2,7.4c-11.3,6-19.7,13.3-25.1,22c-5.4,8.7-8.1,18.3-8.1,28.9c0,11.7,3.2,22.3,9.6,31.6
		c6.4,9.4,15.5,16.8,27.4,22.4c11.9,5.6,26.1,8.4,42.8,8.4c13.3,0,25.2-1.6,35.5-4.8c10.3-3.2,20-8.3,28.9-15.2
		c3.8-3,7.6-6.3,11.4-9.9l29.2,25.6h58.2l-62-54.7L490.5,106.7z M380,181.7c-9.2,5.6-20.6,8.4-34.3,8.4c-8,0-15.1-1.5-21.1-4.4
		c-6-2.9-10.7-6.9-13.9-11.8c-3.2-4.9-4.8-10.3-4.8-16.2c0-9.3,3.5-17.2,10.6-23.8c4.3-4.1,9.8-7.5,16.5-10.2l57.4,50.4
		C387.1,176.9,383.6,179.5,380,181.7z"/>
	<polygon class="st0" points="719.7,47.9 719.7,4.4 504.9,4.4 504.9,47.9 588.8,47.9 588.8,221.8 636.2,221.8 636.2,47.9 	"/>
	<path class="st0" d="M854.6,89.5c0.4-0.1,0.8-0.3,1.2-1.2c0.7-1.6,1.6-3.1,2.7-4.5c-0.4-0.2-0.8-0.3-1.1-0.5
		c-0.6-0.1-1.1-0.2-1.7-0.3c-0.2-0.1-0.5-0.1-0.8-0.2c-1.5-0.3-3.9-0.7-5.9-2.4c0.1,0.2,0.1,0.5,0.2,0.7c0.7,3.3,1.3,6.7,1.9,10
		C852.1,90.4,853.3,89.9,854.6,89.5z"/>
	<path class="st0" d="M879.2,106c1.6,0.5,2.9,1.6,3.9,3.1c2.4-0.9,5-0.8,7.8,0.3c0.3,0.1,0.6,0.2,0.8,0.4c0.2,0,0.5,0,0.7,0h4.2
		l0.2,0.6l1.4-0.4l0.8,1.4c0,0,0,0,0,0c0.6,0.1,1.8-0.2,2.9-0.5c1.6-0.4,3.6-0.9,5.8-0.9c0,0,0.1,0,0.1,0c-0.5-0.2-1-0.5-1.6-0.9
		c-0.9-0.5-2.1-1.3-3.1-2.5c-0.1,0-0.2-0.1-0.3-0.1c-0.3-0.1-0.6-0.2-0.9-0.3c-2,0.1-3.6-0.4-4.9-1.2l-2.6,0.7l-1.7-3.1
		c-0.3,0-0.5-0.1-0.8-0.2c-2.6-0.6-4.2-1-5.7-0.6c-4.9,1.1-9.4,0-12.3-0.8l-0.8-0.2c-1.2-0.4-2.3-0.7-3.3-0.9
		c-2.5-0.4-3.1,0.4-3.5,0.9c-4.2,5.4-9.7,8.7-14.4,11.3c-2.5,1.4-4.3,3-5.5,5c0.2,0,0.5,0,0.7,0c0.7,0,1.3,0.1,1.9,0.1l4.2-5
		l1.6,1.5c0.4-1.6,1.3-2.8,2.7-3.7c0.2-0.1,0.3-0.3,0.5-0.5c1.3-1.3,3.9-4,8.3-3.8c0.8,0,1.7,0,2.5,0c0.7,0,1.4,0,2.1,0
		c0.9,0,2.2,0,3.7,0.5C876.2,105.5,877.7,105.5,879.2,106z"/>
	<path class="st0" d="M819.1,126c-0.2-0.1-0.5-0.2-0.8-0.2h-0.3c-0.1,0-0.2,0-0.3,0c-3.7,1.9-7.2,1.6-9.9,0.8c0.3,0.2,0.6,0.4,1,0.5
		c1.3,0.7,2.6,1.4,3.8,2.2c1.8,1.1,3.7,1.5,6.6,1.2c0.3,0,0.7,0,1-0.1c-0.2-1.3-0.3-2.7-0.1-4.2C819.8,126.2,819.5,126.1,819.1,126z
		"/>
	<path class="st0" d="M846.8,0C776,0,718.7,52.4,718.7,116.9c0,54.8,41.3,100.8,97.1,113.5c-2.4-1.9-4.1-4.4-5.1-7.4
		c-0.4-1.2-0.8-2.5-1.2-3.7c-0.6-1.7-1.2-3.5-1.7-5.2c-1.2-3.8-1.4-7.5-0.6-11.2c0.3-1.2,0.7-2.4,1.2-3.5c-0.2,0-0.3,0-0.4,0
		c-1.5,0-3-0.2-4-0.4c-4.3-0.8-7.3-4.2-7.6-8.6l-0.1-1.1c-0.2-2.5-0.3-5-0.2-7.6c0.2-6.1,3.8-9.8,9.8-10.1c4.1-0.2,8.3-0.2,12.2-0.1
		l0.7,0c2,0,3.9,0.1,5.8,0.1c2,0.1,4,0.1,6,0.1c2.3,0,4.6,0,6.9,0c2.6,0,5.2-0.1,7.9,0c0.4-1.2,0.9-2.4,1.3-3.5
		c0.4-1.4,0.2-3.1-0.8-5.6c-1.1-2.9-3-5.7-6.1-8.9c-1.5-1.6-3.3-3-5.3-4.6c-0.5-0.4-1-0.8-1.5-1.2c-1.3-0.1-2.6-0.3-3.9-0.4
		l-3.9-0.4c-0.9-0.1-2.1-0.2-3.3-0.5c-2.2-0.6-4.7-1-7.9-1.3c-3.6-0.4-7-1.5-9.2-2.3c-4.3-1.5-7-4.7-8.9-7c-0.5-0.6-1.2-1.5-1.8-2
		c-0.1,0-0.3,0-0.4,0c-0.8,0-1.7,0-2.8,0c-4.4-0.2-8,0.3-11.2,1.6c-2.1,0.9-4.2,1.4-6.2,1.9c-0.8,0.2-1.7,0.4-2.5,0.7
		c-4.3,1.3-8.4,0.3-11.2-2.7c-2.4,0-4.4-0.9-5.3-1.4c-0.2-0.1-0.5-0.2-0.7-0.3c-0.9-0.2-1.8-0.5-2.6-0.9c-0.8,0.1-1.7,0.2-2.7,0
		c-1.5,1-2.9,1.5-3.9,1.8c-0.3,0.1-0.7,0.2-1,0.4c-3.5,1.8-7.4,1.5-10.6-0.8c-0.8-0.6-3.1-2.2-3.9-5.2c-2.1-1.5-2.8-3.4-3.1-4.5
		c-0.4-1.6-0.2-3.2,0.5-4.7c-0.8-2.9,0-4.9,0.8-6.2c1-1.5,3-3.2,6.8-3.2c0.2,0,0.3,0,0.5,0c0.2,0,0.5,0,0.8,0
		c0.4-0.4,0.8-0.8,1.3-1.1c0.8-2.1,2.2-3.3,3-3.9c1.7-1.1,3.8-1.5,5.9-1l0.2,0c1,0,2.9,0.1,4.7,1.1l1-2l2.7,1
		c0.2-0.2,0.5-0.4,0.7-0.5c1.3-2.7,3.6-4.4,6.6-4.7c0.5-0.9,1.3-1.9,2.4-2.6c0.9-3.1,2.8-5.2,5.3-6.2c2.2-0.9,4.7-0.9,7.1,0.2
		c0.3-0.2,0.5-0.5,0.7-0.7c5.5-5.6,10.6-2.2,12-1.1c0,0,0.3,0,0.7,0.1c-0.1-0.2-0.2-0.4-0.3-0.7c-0.8-2-0.8-3.8-0.8-5.1
		c0-0.3,0-0.6,0-0.9l-0.1-1.7c-2.8,0.9-5.6,0.7-7.9-0.7c-2.8-1.6-4.6-4.5-5-8.2l-0.8-6.6l5.4-0.3l0.2-3.5l3.2-1.6
		c3.3-1.7,6.2-0.8,7.7-0.2c0,0,0,0,0.1,0c0.4-0.7,1-1.4,1.7-2c0.8-1.6,2.3-3.2,5.3-4c1.8-0.5,3.5-1,5.2-1.3c1.4-0.3,2.9-1.3,4.6-2.3
		c0.2-0.1,0.4-0.2,0.6-0.4c0.2-0.3,0.3-0.6,0.5-0.9c0.1-0.1,0.1-0.2,0.2-0.4c0.5-0.9,1.3-2.4,2.9-3.6c3.3-2.4,6.6-3.9,10.1-4.5
		c1-0.2,2-0.4,3-0.6c1.5-0.3,3-0.6,4.5-0.9c2.1-0.3,4.1-0.2,5.9,0c0.7,0.1,1.3,0.1,2,0.2c1,0.1,1.8,0.2,2.3,0.2
		c3.6-0.5,7.2,0.6,9.9,3.1c1.7-1.6,4.2-2.7,7.5-2c1-1.5,2.4-3.1,4.9-3.7s4.5,0.2,6,1.2c1.8-1,3.7-1.4,4.9-1.6c0.3,0,0.5-0.1,0.8-0.1
		c0.3-0.1,0.6-0.1,0.9-0.2c2.6-1.7,6.2-2.7,9.9,1.1l3.2-1.5l1.6,2l4.7-2.3l2.9,5.2c0.1,0.2,0.7,0.7,1,1.1c1.2,1.2,3.1,3,4.1,5.8
		c0.1,0.1,0.2,0.2,0.4,0.3c0.4,0.2,0.8,0.5,1.2,0.7c3.9,2,6,3.9,6.7,6.7c0.2,0,0.4,0,0.6,0c1.2,0.1,2.3-0.1,3.7-0.6
		c1.4-0.5,2.6-0.6,3.6-0.5c2.6-0.9,5.4-0.9,7.9,0c5.2-1.3,8.4,0.2,10.4,2.3c0.4,0.1,0.7,0.1,1.1,0.2c0.8,0.2,1.7,0.3,2.5,0.5
		c1.4,0.4,2.8,1,4,1.8c0.8,0.6,1.6,1.2,2.5,1.9l2.3,1.9l0.8,2c0.1,0.3,0.2,0.6,0.4,1c0.6,1,1.7,2.9,1.3,5.4c-0.3,1.9-1.2,5.2-4.1,7
		c-0.1,0.1-0.1,0.2-0.2,0.3c-0.3,0.5-0.7,1.1-1.1,1.6l-3.1,4.1l-2.7-1.3l-1.6,1.4l-2.4-1.2l-2.4,1.7l-3.4-2.3
		c-1.5,0.3-3,0.2-4.4-0.2l0.5,2c2,2.2,2.7,5.3,1.7,8.6c0,0.2-0.1,0.4-0.1,0.5c-0.1,0.7-0.3,1.9-0.8,3.1c0.8,2.1,0.7,4.3-0.3,6.2
		c-1,1.9-2.7,3.3-4.9,3.8c-0.3,0.1-0.6,0.2-0.8,0.3c-0.8,0.4-2,0.9-3.4,1.1c-1.1,1.3-2.4,2.2-4,2.6c-0.8,0.2-1.8,0.4-3,0.4l1.9,0.8
		l1.4,3.7c0.1,0.1,0.1,0.2,0.1,0.4c1.7-0.2,3,0.2,4.1,0.7c1.8-0.1,4.1,0,6.2,1.2c0.1,0.1,0.4,0.2,1.9,0l0.4-0.1
		c0.7-0.2,1.8-0.4,3.1-0.4c3.6,0,5.6,1.7,6.6,3.1c0.4,0.6,0.8,1.3,1.1,2.2c1.4,0.9,2.2,2,2.6,2.7c0.9,1.6,1.1,3.5,0.7,5.3
		c0.4,0.5,0.9,1,1.5,1.6c3.3,3.2,4.1,7.6,2,11.6c-1.1,2.2-2.3,4.3-3.8,6.4c-1.4,1.9-3.8,3.4-6.3,4c-6.1,1.4-12.4,0.7-19.2-2.3
		c-2.6-1.1-4.4-3.1-5.3-5.6L910,146l-0.8,1.4c-1.2,2.6-3.7,3.6-5.5,3.6c-2.2,0.1-5.4,0.2-8.5-1.4c-0.3,0.1-0.6,0.1-0.9,0.2
		c-0.2,1-0.6,2-1.1,3c-1.6,2.7-4.4,4.4-7.7,4.7c-2.5,0.3-5-0.2-7.5-1.5c-1.1,0.8-2.1,1.6-3.2,2.4c-0.7,0.5-1.5,1-2.2,1.3
		c0,0.2,0.1,0.4,0.1,0.5c0.7,2.8,1.3,5.5,2.1,8.1c0.4,1.3,0.7,2.6,0.8,4.1c0.1,0,0.2,0,0.3,0c1.8,0,3.6-0.1,5.4-0.3
		c1.8-0.1,3.6-0.2,5.4-0.3c7.4-0.2,14-0.3,20.2-0.4c0,0,0.1,0,0.1,0c6.1,0,9.4,3.2,9.7,9.5c0.1,0.9,0.1,1.9,0.2,2.8
		c0.1,1.6,0.2,3.2,0.3,4.9c0,1.2,0.1,4.8-2.6,7.6c-1.5,1.5-3.4,2.5-5.8,2.7c-0.6,2.2-1.1,4.7-1.8,7.9c-1,4.8-2.6,9.7-4.9,15.1
		c-0.1,0.1-0.1,0.2-0.2,0.4c43.1-18.8,72.9-59,72.9-105.5C975,52.4,917.6,0,846.8,0z"/>
</g>
</svg>
