<?xml version="1.0" encoding="utf-8"?>
<!-- Generator: Adobe Illustrator 27.0.1, SVG Export Plug-In . SVG Version: 6.00 Build 0)  -->
<svg version="1.1" id="Camada_1" xmlns="http://www.w3.org/2000/svg" xmlns:xlink="http://www.w3.org/1999/xlink" x="0px" y="0px"
	 viewBox="0 0 1407.38 267.02" style="enable-background:new 0 0 1407.38 267.02;" xml:space="preserve">
<style type="text/css">
	.st0{fill:#FFFFFF;}
	.st1{fill:none;stroke:#FFFFFF;stroke-width:5;stroke-miterlimit:10;}
</style>
<g>
	<g transform="translate(0.000000,441.000000) scale(0.100000,-0.100000)">
		<path class="st0" d="M8563.56,3074.89c0-422.77,1.05-768.51,2.44-768.51c2.09,0,286.14,52.63,321,59.6l18.12,3.49v282.31v281.96
			h108.04h108.04v51.58c0,28.23,1.05,101.77,2.44,163.81l2.09,112.23h-110.14h-110.48v123.73v123.73h127.21
			c70.05,0,127.21,0.7,127.21,1.74c0,3.83,27.88,301.48,29.62,316.47l2.09,16.38h-314.03h-313.68V3074.89z"/>
		<path class="st0" d="M13776.89,3798.44l-278.13-23v-694.27v-694.27l11.5-1.74c10.11-1.74,548.59-40.78,559.39-40.43
			c3.14,0,4.18,36.94,4.18,172.52v172.52h-118.5h-118.5v125.47v125.47h101.07h101.07v149.87v149.87h-104.56h-104.56v99.33v99.33
			l8.02,1.39c4.18,1.05,39.73,2.44,79.12,3.83c39.38,1.05,90.62,2.79,114.32,4.18l42.52,2.09v185.77v186.12l-9.41-0.35
			C14058.85,3821.8,13929.54,3811.34,13776.89,3798.44z"/>
		<path class="st0" d="M11991.36,3750.35c3.49-34.85,43.22-560.09,42.52-560.79c-0.35-0.7-51.58,125.12-113.97,279.52
			c-62.04,154.4-114.32,282.31-115.71,284.75c-2.09,3.83-98.29-13.94-256.17-47.4l-14.99-3.14v-599.12v-599.12h155.1h155.1
			l-1.74,25.09c-3.49,46.7-16.38,432.88-14.99,448.21c1.05,13.59,11.5-10.11,110.48-249.2c59.95-145.34,110.83-265.58,112.23-267.67
			c2.09-2.09,50.54,1.05,132.79,8.02c71.45,6.27,130,11.85,130,12.2c0.35,0.35-1.39,251.64-3.83,558.35s-4.53,596.34-4.53,644.09
			l-0.35,86.09h-156.84h-157.19L11991.36,3750.35z"/>
		<path class="st0" d="M9537.71,3748.95c-208.42-13.94-323.09-156.49-359.34-445.77c-7.32-59.95-10.46-263.49-5.23-334.59
			c17.43-230.73,79.81-380.6,190.65-456.92c59.6-40.78,149.17-62.74,237.7-57.51c100.72,5.58,169.39,34.16,231.08,95.85
			c50.54,50.54,78.07,97.94,104.56,178.8c36.94,112.92,53.67,281.61,45.31,457.27c-9.41,196.57-39.04,318.91-100.03,412.66
			c-58.21,89.22-150.22,142.55-257.56,149.17c-17.08,1.05-35.2,2.09-40.08,2.79C9579.88,3751.04,9558.97,3750.35,9537.71,3748.95z
			 M9586.85,3475.01c25.44-27.53,36.25-137.32,36.25-372.23c0-289.28-18.12-409.52-57.86-383.73
			c-17.08,11.5-29.97,67.61-36.25,160.67c-4.53,67.96-4.53,379.2,0,444.38c6.62,92.01,18.47,142.9,36.25,155.1
			C9575,3486.16,9576.74,3485.81,9586.85,3475.01z"/>
		<path class="st0" d="M10027.39,3115.32v-634.67h159.98H10347l2.09,44.26c1.39,24.75,4.18,104.91,6.27,178.8
			c2.09,73.89,4.88,138.72,6.27,143.94c1.74,7.32,16.73-39.73,62.74-198.66c33.46-114.67,61.69-209.82,63.08-211.21
			c2.79-3.14,329.71,22.65,333.2,26.14c1.04,1.39-35.2,115.36-80.51,254.08l-82.25,251.64l17.43,15.34
			c57.86,50.54,105.61,148.13,119.2,244.67c5.93,42.17,2.09,146.73-6.97,185.42c-34.85,151.61-127.21,269.41-245.02,313.33
			c-51.23,18.82-47.05,18.47-289.28,19.87l-225.85,1.39V3115.32z M10386.73,3449.22c24.75-12.2,44.96-43.57,55.76-86.78
			c7.32-28.93,6.27-120.59-1.74-149.87c-14.99-55.07-41.47-87.13-81.21-99.33l-8.02-2.09v174.27v174.61l11.5-2.44
			C10368.95,3456.53,10379.76,3452.7,10386.73,3449.22z"/>
		<path class="st0" d="M10804.62,3583.75v-162.07h88.88h88.88v-467.03v-467.03h167.29h167.29v439.15v439.15h90.62h90.62v162.07
			v162.07l-7.67,1.39c-7.32,1.74-671.97,54.72-681.38,54.37C10805.66,3745.82,10804.62,3710.96,10804.62,3583.75z"/>
		<path class="st0" d="M12376.49,3078.38V2445.8h172.52h172.52v632.58v632.58h-172.52h-172.52V3078.38z"/>
		<path class="st0" d="M13115.38,3667.05c-188.9-10.11-346.09-18.47-349.23-18.47c-5.92-0.35-6.27-10.46-6.27-164.16v-163.81h88.88
			h88.88v-458.32v-458.32h169.04h169.04v477.49v477.49h94.1h94.1v163.81c0,90.27-1.05,163.46-2.44,163.46
			C13459.72,3685.87,13304.28,3677.5,13115.38,3667.05z"/>
	</g>
	<g>
		<path class="st0" d="M81.7,155.23h41.39c-1.02,2.17-2.17,4.15-3.58,6.07c-4.15,5.62-9.77,9.96-16.93,13.03
			c-7.15,3.07-15.39,4.6-24.91,4.6c-9.71,0-18.14-1.79-25.23-5.37c-7.09-3.58-12.65-8.75-16.48-15.46
			c-3.83-6.77-5.81-14.95-5.81-24.47c0-9.52,1.85-17.63,5.49-24.27c3.7-6.64,8.88-11.69,15.59-15.14
			c6.71-3.45,14.69-5.17,23.95-5.17c7.79,0,14.76,1.09,20.76,3.26c6,2.17,10.99,5.24,14.88,9.26c3.9,4.02,6.45,8.75,7.6,14.31h29.96
			c-1.53-10.28-5.43-19.42-11.82-27.34c-6.39-7.98-14.69-14.24-24.98-18.78s-22.42-6.77-36.47-6.77c-10.73,0-20.7,1.6-29.77,4.79
			c-9.13,3.19-17.06,7.79-23.83,13.86S9.45,95.06,5.69,103.87S0,122.59,0,133.7s1.85,21.08,5.62,29.83s8.94,16.16,15.71,22.23
			c6.71,6.07,14.56,10.67,23.51,13.86s18.52,4.79,28.81,4.79c10.6,0,19.99-1.6,28.04-4.92c8.05-3.26,14.82-7.73,20.31-13.48
			c1.79-1.85,3.39-3.83,4.92-5.81l1.6,21.53h21.4v-68.8H81.7V155.23z"/>
		<path class="st0" d="M313.32,128.08h-30.85l-17.5,24.02l-42.22-37.24c-3.26-3-5.62-5.81-7.09-8.3c-1.47-2.56-2.17-4.92-2.17-7.09
			c0-3.13,0.83-5.81,2.56-7.98c1.72-2.17,4.02-3.83,7.09-4.98c3.07-1.15,6.64-1.72,10.86-1.72c7.15,0,12.65,1.72,16.54,5.17
			c3.9,3.45,6.2,7.92,6.9,13.48h29.06c-0.45-7.86-2.81-14.82-7.09-20.82c-4.28-6.07-10.28-10.8-18.14-14.31
			c-7.86-3.51-17.31-5.24-28.43-5.24c-10.54,0-19.55,1.47-27.15,4.34c-7.6,2.87-13.35,6.9-17.37,12.07
			c-3.96,5.11-5.94,11.18-5.94,18.01c0,5.56,1.6,10.8,4.79,15.78c3,4.66,7.09,9.33,12.14,14.05c-4.6,1.28-8.69,2.87-12.26,4.73
			c-7.22,3.83-12.58,8.5-16.03,14.05c-3.45,5.56-5.17,11.69-5.17,18.46c0,7.47,2.04,14.24,6.13,20.19c4.09,6,9.9,10.73,17.5,14.31
			c7.6,3.58,16.67,5.37,27.34,5.37c8.5,0,16.1-1.02,22.68-3.07s12.78-5.3,18.46-9.71c2.43-1.92,4.85-4.02,7.28-6.32l18.65,16.35
			h37.18l-39.6-34.94L313.32,128.08z M242.74,175.99c-5.88,3.58-13.16,5.37-21.91,5.37c-5.11,0-9.65-0.96-13.48-2.81
			s-6.83-4.41-8.88-7.54c-2.04-3.13-3.07-6.58-3.07-10.35c0-5.94,2.24-10.99,6.77-15.2c2.75-2.62,6.26-4.79,10.54-6.52l36.67,32.19
			C247.27,172.92,245.04,174.58,242.74,175.99z"/>
		<polygon class="st0" points="459.73,90.52 459.73,62.73 322.52,62.73 322.52,90.52 376.11,90.52 376.11,201.6 406.39,201.6 
			406.39,90.52 		"/>
		<path class="st0" d="M545.9,117.09c0.26-0.06,0.51-0.19,0.77-0.77c0.45-1.02,1.02-1.98,1.72-2.87c-0.26-0.13-0.51-0.19-0.7-0.32
			c-0.38-0.06-0.7-0.13-1.09-0.19c-0.13-0.06-0.32-0.06-0.51-0.13c-0.96-0.19-2.49-0.45-3.77-1.53c0.06,0.13,0.06,0.32,0.13,0.45
			c0.45,2.11,0.83,4.28,1.21,6.39C544.31,117.67,545.07,117.35,545.9,117.09z"/>
		<path class="st0" d="M561.62,127.63c1.02,0.32,1.85,1.02,2.49,1.98c1.53-0.57,3.19-0.51,4.98,0.19c0.19,0.06,0.38,0.13,0.51,0.26
			c0.13,0,0.32,0,0.45,0h2.68l0.13,0.38l0.89-0.26l0.51,0.89l0,0c0.38,0.06,1.15-0.13,1.85-0.32c1.02-0.26,2.3-0.57,3.7-0.57h0.06
			c-0.32-0.13-0.64-0.32-1.02-0.57c-0.57-0.32-1.34-0.83-1.98-1.6c-0.06,0-0.13-0.06-0.19-0.06c-0.19-0.06-0.38-0.13-0.57-0.19
			c-1.28,0.06-2.3-0.26-3.13-0.77l-1.66,0.45l-1.09-1.98c-0.19,0-0.32-0.06-0.51-0.13c-1.66-0.38-2.68-0.64-3.64-0.38
			c-3.13,0.7-6,0-7.86-0.51l-0.51-0.13c-0.77-0.26-1.47-0.45-2.11-0.57c-1.6-0.26-1.98,0.26-2.24,0.57c-2.68,3.45-6.2,5.56-9.2,7.22
			c-1.6,0.89-2.75,1.92-3.51,3.19c0.13,0,0.32,0,0.45,0c0.45,0,0.83,0.06,1.21,0.06l2.68-3.19l1.02,0.96
			c0.26-1.02,0.83-1.79,1.72-2.36c0.13-0.06,0.19-0.19,0.32-0.32c0.83-0.83,2.49-2.56,5.3-2.43c0.51,0,1.09,0,1.6,0
			c0.45,0,0.89,0,1.34,0c0.57,0,1.41,0,2.36,0.32C559.7,127.31,560.66,127.31,561.62,127.63z"/>
		<path class="st0" d="M523.23,140.41c-0.13-0.06-0.32-0.13-0.51-0.13h-0.19c-0.06,0-0.13,0-0.19,0c-2.36,1.21-4.6,1.02-6.32,0.51
			c0.19,0.13,0.38,0.26,0.64,0.32c0.83,0.45,1.66,0.89,2.43,1.41c1.15,0.7,2.36,0.96,4.22,0.77c0.19,0,0.45,0,0.64-0.06
			c-0.13-0.83-0.19-1.72-0.06-2.68C523.67,140.54,523.48,140.47,523.23,140.41z"/>
		<path class="st0" d="M540.92,59.92c-45.23,0-81.83,33.47-81.83,74.67c0,35.01,26.38,64.39,62.03,72.5
			c-1.53-1.21-2.62-2.81-3.26-4.73c-0.26-0.77-0.51-1.6-0.77-2.36c-0.38-1.09-0.77-2.24-1.09-3.32c-0.77-2.43-0.89-4.79-0.38-7.15
			c0.19-0.77,0.45-1.53,0.77-2.24c-0.13,0-0.19,0-0.26,0c-0.96,0-1.92-0.13-2.56-0.26c-2.75-0.51-4.66-2.68-4.85-5.49l-0.06-0.7
			c-0.13-1.6-0.19-3.19-0.13-4.85c0.13-3.9,2.43-6.26,6.26-6.45c2.62-0.13,5.3-0.13,7.79-0.06h0.45c1.28,0,2.49,0.06,3.7,0.06
			c1.28,0.06,2.56,0.06,3.83,0.06c1.47,0,2.94,0,4.41,0c1.66,0,3.32-0.06,5.05,0c0.26-0.77,0.57-1.53,0.83-2.24
			c0.26-0.89,0.13-1.98-0.51-3.58c-0.7-1.85-1.92-3.64-3.9-5.69c-0.96-1.02-2.11-1.92-3.39-2.94c-0.32-0.26-0.64-0.51-0.96-0.77
			c-0.83-0.06-1.66-0.19-2.49-0.26l-2.49-0.26c-0.57-0.06-1.34-0.13-2.11-0.32c-1.41-0.38-3-0.64-5.05-0.83
			c-2.3-0.26-4.47-0.96-5.88-1.47c-2.75-0.96-4.47-3-5.69-4.47c-0.32-0.38-0.77-0.96-1.15-1.28c-0.06,0-0.19,0-0.26,0
			c-0.51,0-1.09,0-1.79,0c-2.81-0.13-5.11,0.19-7.15,1.02c-1.34,0.57-2.68,0.89-3.96,1.21c-0.51,0.13-1.09,0.26-1.6,0.45
			c-2.75,0.83-5.37,0.19-7.15-1.72c-1.53,0-2.81-0.57-3.39-0.89c-0.13-0.06-0.32-0.13-0.45-0.19c-0.57-0.13-1.15-0.32-1.66-0.57
			c-0.51,0.06-1.09,0.13-1.72,0c-0.96,0.64-1.85,0.96-2.49,1.15c-0.19,0.06-0.45,0.13-0.64,0.26c-2.24,1.15-4.73,0.96-6.77-0.51
			c-0.51-0.38-1.98-1.41-2.49-3.32c-1.34-0.96-1.79-2.17-1.98-2.87c-0.26-1.02-0.13-2.04,0.32-3c-0.51-1.85,0-3.13,0.51-3.96
			c0.64-0.96,1.92-2.04,4.34-2.04c0.13,0,0.19,0,0.32,0c0.13,0,0.32,0,0.51,0c0.26-0.26,0.51-0.51,0.83-0.7
			c0.51-1.34,1.41-2.11,1.92-2.49c1.09-0.7,2.43-0.96,3.77-0.64h0.13c0.64,0,1.85,0.06,3,0.7l0.64-1.28l1.72,0.64
			c0.13-0.13,0.32-0.26,0.45-0.32c0.83-1.72,2.3-2.81,4.22-3c0.32-0.57,0.83-1.21,1.53-1.66c0.57-1.98,1.79-3.32,3.39-3.96
			c1.41-0.57,3-0.57,4.54,0.13c0.19-0.13,0.32-0.32,0.45-0.45c3.51-3.58,6.77-1.41,7.67-0.7c0,0,0.19,0,0.45,0.06
			c-0.06-0.13-0.13-0.26-0.19-0.45c-0.51-1.28-0.51-2.43-0.51-3.26c0-0.19,0-0.38,0-0.57l-0.06-1.09c-1.79,0.57-3.58,0.45-5.05-0.45
			c-1.79-1.02-2.94-2.87-3.19-5.24l-0.51-4.22l3.45-0.19l0.13-2.24l2.04-1.02c2.11-1.09,3.96-0.51,4.92-0.13c0,0,0,0,0.06,0
			c0.26-0.45,0.64-0.89,1.09-1.28c0.51-1.02,1.47-2.04,3.39-2.56c1.15-0.32,2.24-0.64,3.32-0.83c0.89-0.19,1.85-0.83,2.94-1.47
			c0.13-0.06,0.26-0.13,0.38-0.26c0.13-0.19,0.19-0.38,0.32-0.57c0.06-0.06,0.06-0.13,0.13-0.26c0.32-0.57,0.83-1.53,1.85-2.3
			c2.11-1.53,4.22-2.49,6.45-2.87c0.64-0.13,1.28-0.26,1.92-0.38c0.96-0.19,1.92-0.38,2.87-0.57c1.34-0.19,2.62-0.13,3.77,0
			c0.45,0.06,0.83,0.06,1.28,0.13c0.64,0.06,1.15,0.13,1.47,0.13c2.3-0.32,4.6,0.38,6.32,1.98c1.09-1.02,2.68-1.72,4.79-1.28
			c0.64-0.96,1.53-1.98,3.13-2.36c1.6-0.38,2.87,0.13,3.83,0.77c1.15-0.64,2.36-0.89,3.13-1.02c0.19,0,0.32-0.06,0.51-0.06
			c0.19-0.06,0.38-0.06,0.57-0.13c1.66-1.09,3.96-1.72,6.32,0.7l2.04-0.96l1.02,1.28l3-1.47l1.85,3.32c0.06,0.13,0.45,0.45,0.64,0.7
			c0.77,0.77,1.98,1.92,2.62,3.7c0.06,0.06,0.13,0.13,0.26,0.19c0.26,0.13,0.51,0.32,0.77,0.45c2.49,1.28,3.83,2.49,4.28,4.28
			c0.13,0,0.26,0,0.38,0c0.77,0.06,1.47-0.06,2.36-0.38s1.66-0.38,2.3-0.32c1.66-0.57,3.45-0.57,5.05,0
			c3.32-0.83,5.37,0.13,6.64,1.47c0.26,0.06,0.45,0.06,0.7,0.13c0.51,0.13,1.09,0.19,1.6,0.32c0.89,0.26,1.79,0.64,2.56,1.15
			c0.51,0.38,1.02,0.77,1.6,1.21l1.47,1.21l0.51,1.28c0.06,0.19,0.13,0.38,0.26,0.64c0.38,0.64,1.09,1.85,0.83,3.45
			c-0.19,1.21-0.77,3.32-2.62,4.47c-0.06,0.06-0.06,0.13-0.13,0.19c-0.19,0.32-0.45,0.7-0.7,1.02l-1.98,2.62l-1.72-0.83l-1.02,0.89
			l-1.53-0.77l-1.53,1.09l-2.17-1.47c-0.96,0.19-1.92,0.13-2.81-0.13l0.32,1.28c1.28,1.41,1.72,3.39,1.09,5.49
			c0,0.13-0.06,0.26-0.06,0.32c-0.06,0.45-0.19,1.21-0.51,1.98c0.51,1.34,0.45,2.75-0.19,3.96s-1.72,2.11-3.13,2.43
			c-0.19,0.06-0.38,0.13-0.51,0.19c-0.51,0.26-1.28,0.57-2.17,0.7c-0.7,0.83-1.53,1.41-2.56,1.66c-0.51,0.13-1.15,0.26-1.92,0.26
			l1.21,0.51l0.89,2.36c0.06,0.06,0.06,0.13,0.06,0.26c1.09-0.13,1.92,0.13,2.62,0.45c1.15-0.06,2.62,0,3.96,0.77
			c0.06,0.06,0.26,0.13,1.21,0l0.26-0.06c0.45-0.13,1.15-0.26,1.98-0.26c2.3,0,3.58,1.09,4.22,1.98c0.26,0.38,0.51,0.83,0.7,1.41
			c0.89,0.57,1.41,1.28,1.66,1.72c0.57,1.02,0.7,2.24,0.45,3.39c0.26,0.32,0.57,0.64,0.96,1.02c2.11,2.04,2.62,4.85,1.28,7.41
			c-0.7,1.41-1.47,2.75-2.43,4.09c-0.89,1.21-2.43,2.17-4.02,2.56c-3.9,0.89-7.92,0.45-12.26-1.47c-1.66-0.7-2.81-1.98-3.39-3.58
			l-0.26,0.13l-0.51,0.89c-0.77,1.66-2.36,2.3-3.51,2.3c-1.41,0.06-3.45,0.13-5.43-0.89c-0.19,0.06-0.38,0.06-0.57,0.13
			c-0.13,0.64-0.38,1.28-0.7,1.92c-1.02,1.72-2.81,2.81-4.92,3c-1.6,0.19-3.19-0.13-4.79-0.96c-0.7,0.51-1.34,1.02-2.04,1.53
			c-0.45,0.32-0.96,0.64-1.41,0.83c0,0.13,0.06,0.26,0.06,0.32c0.45,1.79,0.83,3.51,1.34,5.17c0.26,0.83,0.45,1.66,0.51,2.62
			c0.06,0,0.13,0,0.19,0c1.15,0,2.3-0.06,3.45-0.19c1.15-0.06,2.3-0.13,3.45-0.19c4.73-0.13,8.94-0.19,12.9-0.26h0.06
			c3.9,0,6,2.04,6.2,6.07c0.06,0.57,0.06,1.21,0.13,1.79c0.06,1.02,0.13,2.04,0.19,3.13c0,0.77,0.06,3.07-1.66,4.85
			c-0.96,0.96-2.17,1.6-3.7,1.72c-0.38,1.41-0.7,3-1.15,5.05c-0.64,3.07-1.66,6.2-3.13,9.65c-0.06,0.06-0.06,0.13-0.13,0.26
			c27.53-12.01,46.57-37.69,46.57-67.39C622.81,93.4,586.15,59.92,540.92,59.92z"/>
	</g>
	<line class="st1" x1="739.52" y1="0" x2="739.52" y2="267.02"/>
</g>
</svg>
