<?xml version="1.0" encoding="UTF-8"?>
<svg id="Layer_1" data-name="Layer 1" xmlns="http://www.w3.org/2000/svg" viewBox="0 0 33.13 35">
  <defs>
    <style>
      .cls-1 {
        fill: #fff;
      }
    </style>
  </defs>
  <path class="cls-1" d="m26.4,28.4c-10.02,0-18.15-8.13-18.15-18.15,0-3.8,1.17-7.33,3.17-10.25C4.73,2.67,0,9.2,0,16.85c0,10.02,8.13,18.15,18.15,18.15,6.22,0,11.71-3.13,14.98-7.9-2.08.83-4.35,1.3-6.73,1.3Z"/>
  <polygon class="cls-1" points="22.28 3.31 23.86 6.19 26.74 7.77 23.86 9.35 22.28 12.24 20.7 9.35 17.81 7.77 20.7 6.19 22.28 3.31"/>
  <polygon class="cls-1" points="27.88 9.91 28.53 11.08 29.7 11.73 28.53 12.37 27.88 13.55 27.24 12.37 26.06 11.73 27.24 11.08 27.88 9.91"/>
  <polygon class="cls-1" points="23.76 14.86 24.11 15.5 24.75 15.85 24.11 16.21 23.76 16.85 23.4 16.21 22.76 15.85 23.4 15.5 23.76 14.86"/>
</svg>